<?xml version="1.0" encoding="UTF-8" standalone="no"?>
<!DOCTYPE svg PUBLIC "-//W3C//DTD SVG 1.1//EN" "http://www.w3.org/Graphics/SVG/1.1/DTD/svg11.dtd">
<svg width="100%" height="100%" viewBox="0 0 16 16" version="1.1" xmlns="http://www.w3.org/2000/svg" xmlns:xlink="http://www.w3.org/1999/xlink" xml:space="preserve" xmlns:serif="http://www.serif.com/" style="fill-rule:evenodd;clip-rule:evenodd;stroke-linejoin:round;stroke-miterlimit:2;">
    <g transform="matrix(1.6398,0,0,1,-0.618479,0.737077)">
        <path d="M9.607,0.989C9.607,0.849 9.538,0.735 9.452,0.735L1.121,0.735C1.036,0.735 0.967,0.849 0.967,0.989L0.967,5.549C0.967,5.689 1.036,5.802 1.121,5.802L9.452,5.802C9.538,5.802 9.607,5.689 9.607,5.549L9.607,0.989Z" style="fill:rgb(67,67,66);"/>
    </g>
    <g transform="matrix(1.6398,0,0,1,-0.618479,2.73053)">
        <path d="M9.607,0.989C9.607,0.849 9.538,0.735 9.452,0.735L1.121,0.735C1.036,0.735 0.967,0.849 0.967,0.989L0.967,5.549C0.967,5.689 1.036,5.802 1.121,5.802L9.452,5.802C9.538,5.802 9.607,5.689 9.607,5.549L9.607,0.989Z" style="fill:rgb(118,131,94);"/>
    </g>
    <g transform="matrix(1.6398,0,0,1,-0.618479,4.72399)">
        <path d="M9.607,0.989C9.607,0.849 9.538,0.735 9.452,0.735L1.121,0.735C1.036,0.735 0.967,0.849 0.967,0.989L0.967,5.549C0.967,5.689 1.036,5.802 1.121,5.802L9.452,5.802C9.538,5.802 9.607,5.689 9.607,5.549L9.607,0.989Z" style="fill:rgb(210,193,118);"/>
    </g>
    <g transform="matrix(1.6398,0,0,1,-0.618479,6.71745)">
        <path d="M9.607,0.989C9.607,0.849 9.538,0.735 9.452,0.735L1.121,0.735C1.036,0.735 0.967,0.849 0.967,0.989L0.967,5.549C0.967,5.689 1.036,5.802 1.121,5.802L9.452,5.802C9.538,5.802 9.607,5.689 9.607,5.549L9.607,0.989Z" style="fill:rgb(102,128,197);"/>
    </g>
    <g transform="matrix(1.6398,0,0,1,-0.618479,8.72765)">
        <path d="M9.607,0.989C9.607,0.849 9.538,0.735 9.452,0.735L1.121,0.735C1.036,0.735 0.967,0.849 0.967,0.989L0.967,5.549C0.967,5.689 1.036,5.802 1.121,5.802L9.452,5.802C9.538,5.802 9.607,5.689 9.607,5.549L9.607,0.989Z" style="fill:rgb(154,134,190);"/>
    </g>
</svg>
