<?xml version="1.0" encoding="UTF-8" standalone="no"?>
<!DOCTYPE svg PUBLIC "-//W3C//DTD SVG 1.1//EN" "http://www.w3.org/Graphics/SVG/1.1/DTD/svg11.dtd">
<svg width="100%" height="100%" viewBox="0 0 16 16" version="1.1" xmlns="http://www.w3.org/2000/svg" xmlns:xlink="http://www.w3.org/1999/xlink" xml:space="preserve" xmlns:serif="http://www.serif.com/" style="fill-rule:evenodd;clip-rule:evenodd;stroke-linejoin:round;stroke-miterlimit:2;">
    <g transform="matrix(0.538566,0,0,2.58403,0.550146,-0.427905)">
        <path d="M9.607,0.826C9.607,0.776 9.413,0.735 9.175,0.735L1.399,0.735C1.16,0.735 0.967,0.776 0.967,0.826L0.967,5.712C0.967,5.762 1.16,5.802 1.399,5.802L9.175,5.802C9.413,5.802 9.607,5.762 9.607,5.712L9.607,0.826Z" style="fill:rgb(67,67,66);"/>
    </g>
    <g transform="matrix(0.538566,0,0,2.58512,2.84824,-0.433931)">
        <path d="M9.607,0.825C9.607,0.776 9.413,0.735 9.175,0.735L1.399,0.735C1.16,0.735 0.967,0.776 0.967,0.825L0.967,5.712C0.967,5.762 1.16,5.802 1.399,5.802L9.175,5.802C9.413,5.802 9.607,5.762 9.607,5.712L9.607,0.825Z" style="fill:rgb(118,131,94);"/>
    </g>
    <g transform="matrix(0.540505,0,0,2.583,5.15957,-0.427146)">
        <path d="M9.607,0.826C9.607,0.776 9.413,0.735 9.175,0.735L1.399,0.735C1.16,0.735 0.967,0.776 0.967,0.826L0.967,5.712C0.967,5.762 1.16,5.802 1.399,5.802L9.175,5.802C9.413,5.802 9.607,5.762 9.607,5.712L9.607,0.826Z" style="fill:rgb(210,193,118);"/>
    </g>
    <g transform="matrix(0.534688,0,0,2.58278,7.51044,-0.42641)">
        <path d="M9.607,0.825C9.607,0.776 9.413,0.735 9.175,0.735L1.399,0.735C1.16,0.735 0.967,0.776 0.967,0.825L0.967,5.713C0.967,5.762 1.16,5.802 1.399,5.802L9.175,5.802C9.413,5.802 9.607,5.762 9.607,5.713L9.607,0.825Z" style="fill:rgb(102,128,197);"/>
    </g>
    <g transform="matrix(0.534688,0,0,2.58283,9.80543,-0.426166)">
        <path d="M9.607,0.825C9.607,0.776 9.413,0.735 9.175,0.735L1.399,0.735C1.16,0.735 0.967,0.776 0.967,0.825L0.967,5.713C0.967,5.762 1.16,5.802 1.399,5.802L9.175,5.802C9.413,5.802 9.607,5.762 9.607,5.713L9.607,0.825Z" style="fill:rgb(154,134,190);"/>
    </g>
</svg>
